PathFileType        4      (X/Y/Z)      C:\Users\pc\Desktop\IMUTRC\Sujet_08\Sujet_08_velo_80.trc         
DataRate	CameraRate	NumFrames	NumMarkers	Units	OrigDataRate	OrigDataStartFrame	OrigNumFrames
60.0	60.0	4	64	mm	60.0	236	940
Frame#	Time	pHipOrigin			pRightASI			pLeftASI			pRightCSI			pLeftCSI			pRightIschialTub			pLeftIschialTub			pSacrum			pL5SpinalProcess			pL3SpinalProcess			pT12SpinalProcess			pIJ			pT4SpinalProcess			pT8SpinalProcess			pPX			pC7SpinalProcess			pTopOfHead			pRightAuricularis			pLeftAuricularis			pBackOfHead			pRightAcromion			pLeftAcromion			pRightArmLatEpicondyle			pRightArmMedEpicondyle			pLeftArmLatEpicondyle			pLeftArmMedEpicondyle			pRightUlnarStyloid			pRightRadialStyloid			pRightOlecranon			pLeftUlnarStyloid			pLeftRadialStyloid			pLeftOlecranon			pRightTopOfHand			pRightPinky			pRightBallHand			pLeftTopOfHand			pLeftPinky			pLeftBallHand			pRightGreaterTrochanter			pRightKneeLatEpicondyle			pRightKneeMedEpicondyle			pRightPatella			pLeftGreaterTrochanter			pLeftKneeLatEpicondyle			pLeftKneeMedEpicondyle			pLeftPatella			pRightTibialTub			pRightLatMalleolus			pRightMedMalleolus			pLeftTibialTub			pLeftLatMalleolus			pLeftMedMalleolus			pRightHeelFoot			pRightFirstMetatarsal			pRightFifthMetatarsal			pRightPivotFoot			pRightHeelCenter			pRightToe			pLeftHeelFoot			pLeftFirstMetatarsal			pLeftFifthMetatarsal			pLeftPivotFoot			pLeftHeelCenter			pLeftToe			
		X1	Y1	Z1	X2	Y2	Z2	X3	Y3	Z3	X4	Y4	Z4	X5	Y5	Z5	X6	Y6	Z6	X7	Y7	Z7	X8	Y8	Z8	X9	Y9	Z9	X10	Y10	Z10	X11	Y11	Z11	X12	Y12	Z12	X13	Y13	Z13	X14	Y14	Z14	X15	Y15	Z15	X16	Y16	Z16	X17	Y17	Z17	X18	Y18	Z18	X19	Y19	Z19	X20	Y20	Z20	X21	Y21	Z21	X22	Y22	Z22	X23	Y23	Z23	X24	Y24	Z24	X25	Y25	Z25	X26	Y26	Z26	X27	Y27	Z27	X28	Y28	Z28	X29	Y29	Z29	X30	Y30	Z30	X31	Y31	Z31	X32	Y32	Z32	X33	Y33	Z33	X34	Y34	Z34	X35	Y35	Z35	X36	Y36	Z36	X37	Y37	Z37	X38	Y38	Z38	X39	Y39	Z39	X40	Y40	Z40	X41	Y41	Z41	X42	Y42	Z42	X43	Y43	Z43	X44	Y44	Z44	X45	Y45	Z45	X46	Y46	Z46	X47	Y47	Z47	X48	Y48	Z48	X49	Y49	Z49	X50	Y50	Z50	X51	Y51	Z51	X52	Y52	Z52	X53	Y53	Z53	X54	Y54	Z54	X55	Y55	Z55	X56	Y56	Z56	X57	Y57	Z57	X58	Y58	Z58	X59	Y59	Z59	X60	Y60	Z60	X61	Y61	Z61	X62	Y62	Z62	X63	Y63	Z63	X64	Y64	Z64	
236	3.917	0.0	1249.97582	7.653894434872941E-14	112.15567639058077	1313.4764	120.47560682526169	71.2293701679992	1329.95747	-140.1897949588736	88.47726996299677	1390.38805	105.45836288842865	54.7807899757978	1403.96069	-109.27537913321194	-60.16531170892887	1210.87368	62.15006652450531	-76.88977362512502	1217.66	-45.11293582018157	-54.654478167580095	1289.88585	11.089602824358163	10.385895696362855	1370.99856	5.972754074802727	77.99860664893771	1463.58337	-1.2041756604784366	139.28157198398003	1548.73555	-8.630166735648436	382.6636278135759	1591.06927	-53.09073348034879	272.6873799815973	1681.55356	-29.362174782397627	207.56584277129588	1626.77825	-18.618421164177008	296.8426801613409	1512.54184	-39.04503640071459	310.62323217662197	1712.57675	-33.598657763626086	472.14112111971895	1885.14321	-77.77844726363867	462.0929588560004	1793.52787	-6.47962604331568	406.566424022765	1803.38419	-128.58362332419418	390.95667174589335	1819.86526	-46.13204337540424	347.5415214408925	1654.56985	115.70924458758554	292.2134095285318	1660.3867	-192.8982088417166	462.0987960322095	1388.61068	107.63651023282131	432.81808744573203	1376.65382	54.80292199159186	406.3920834190199	1394.10437	-186.945634016319	390.59194105793404	1387.6412	-127.64480014556793	546.7798472895855	1153.99784	118.57829122054689	590.6060077663601	1172.25628	97.76986788613259	425.1974786202961	1376.49225	93.54675380884362	489.7788211773825	1161.43048	-209.15074014238996	535.4871114272759	1184.21313	-217.62260809431842	374.89948600562684	1382.30909	-154.94441162507832	726.3524782000758	1070.46145	179.82477973634468	635.391579078288	1076.60146	160.02782270903947	589.9982692252329	1122.97466	118.35256819479544	631.6183193282865	1070.1383	-331.4331989029364	559.3014772052034	1078.37883	-273.15168493509685	531.8905207083048	1131.86151	-224.64811947242552	20.75878899155235	1208.77315	155.99741428749846	191.21858342609295	853.29916	110.46186279163696	200.04182082248573	860.57022	34.338534898481264	233.2906599287907	877.6976	76.15877405269757	15.084203778982499	1251.91477	-159.247967666461	391.48000010431156	1126.20624	-151.57802858029333	394.4057028059224	1121.03571	-74.87693639954084	403.6424770607431	1165.1468	-108.25704402282425	245.30428711914166	821.3065	71.8963982545587	142.25803881783966	455.32987	107.97863684466029	142.69123576559898	454.19881	47.384363514467985	418.49738910955136	1078.37883	-120.68161896431296	173.63810666426642	788.66753	-165.2060107002485	180.78099356514912	779.94225	-105.84801965191792	75.1095894166387	398.29245	75.89094075137005	213.01867044647508	337.86187	26.6658706010896	216.75963394353658	331.07555	100.88714522153622	234.02496726051857	325.74344	60.955444206658164	109.83431027130243	385.36612	72.96761207910583	305.8987614389569	291.97341	53.979157531722684	97.99662923203113	746.49538	-133.12704224233298	219.31302712971055	646.31635	-115.06832835870274	213.8548202503281	653.42583	-189.25404729922437	232.91195736802302	636.46003	-153.6470510467689	128.2369025435377	725.32852	-137.4930774402537	293.68418067825405	585.88577	-162.97808648118402	
237	3.933	0.0	1249.97582	7.653894434872941E-14	112.81867780071171	1312.66851	120.18822022473134	70.77409842969068	1330.44221	-140.149970941026	89.28395824551679	1389.74173	105.5024846534082	54.469205109878345	1404.28385	-108.90404674985446	-59.81389516471739	1210.7121	62.23401230733245	-77.2212679023144	1217.98316	-44.969250180360824	-54.38701506664019	1289.88585	11.524958723520687	10.653366457747195	1370.99856	6.408116401841344	78.24616157117605	1463.42179	-0.9964524165321392	139.61307268904548	1548.57397	-8.77386003591362	382.89554289503525	1590.58454	-54.37261453563114	273.06299479119787	1681.06883	-30.312562793058913	207.98128283131237	1626.45509	-19.113523348209227	297.01057172699524	1512.0571	-39.747869489137535	311.20656380229275	1712.09201	-34.79659303608128	472.85252029319633	1884.17374	-80.13448736282538	462.72041224665077	1792.88155	-8.484249598290834	406.96623066987854	1802.41472	-130.56833746789945	391.5841174760992	1819.38052	-48.136673358255536	348.80777031584023	1654.2467	114.4515617976923	291.32705146155166	1659.74039	-193.852879278621	462.47012841556705	1387.96436	107.9480950987408	432.96178074599715	1375.68435	55.13442269665731	406.2683059579008	1393.45805	-187.04949563829214	390.81958014102634	1387.31804	-127.66471598471395	547.0274022118239	1153.18995	118.78601446449319	590.8535626885985	1171.60996	97.97759113007889	425.56881100365365	1375.84593	93.85833867476305	490.3777926438323	1161.2689	-208.85907111561647	536.2098603548447	1184.05155	-217.22707744557187	374.77570854450767	1381.82436	-155.04827324705147	726.7878405271143	1069.49198	179.55730897496034	635.7429891946235	1075.79356	160.11177615231105	590.2458241474712	1122.16676	118.56029143874169	632.4449298778285	1070.1383	-331.1614457153089	560.0242261327724	1078.37883	-272.7561542863503	532.717131257847	1131.86151	-224.3763662847981	20.63501153043319	1208.28842	155.89355266552533	186.6459141017417	850.7139	110.63253802632823	195.5929289592536	857.82337	34.613071755145704	229.0694071486509	874.46602	76.413395070216	15.104119618128536	1254.0153	-159.0203285833687	394.31123297626056	1137.19362	-150.67883609033612	396.88551913365995	1130.89203	-74.06168969241078	405.49912365664164	1175.64944	-106.6991325489792	239.05420485819315	816.78229	72.55789324703915	120.05339709165067	455.81461	109.80660052673542	120.73414896164832	454.36039	49.42005044048943	423.47693883674077	1090.01252	-118.82347237863992	192.50356235803994	789.15226	-164.56273056751672	198.98344908136008	781.23489	-104.91733883033525	51.78666811413412	399.90824	78.04612271226758	188.573199997164	336.0845	30.410228396501388	191.85888532804088	329.9445	104.67133469524003	209.14413448416892	323.80449	64.9672727634543	86.30366572485154	386.17402	75.37034896224169	280.41468119779046	288.41867	58.96128227788171	118.59924537983994	743.10222	-132.29166461811343	245.23096970814117	649.70951	-113.78046266521163	239.4412762120138	656.17267	-187.8224895380364	259.40895557375745	640.4995	-152.29515540959667	150.12140097919718	723.55115	-136.42577064625428	322.8488038490947	593.15683	-161.28612405389188	
238	3.95	0.0	1249.97582	7.653894434872941E-14	113.37780992842507	1312.18377	120.02460465744406	70.4226818854792	1330.76536	-140.23391672385313	89.75915225084742	1389.25699	105.69029205820848	54.38525932705121	1404.60701	-108.55263020564297	-59.690117703598226	1210.55052	62.3378739293056	-77.32512952428755	1218.14474	-44.84547271924166	-54.47096084946732	1289.88585	11.876375267732161	10.797059758012374	1370.99856	6.7396171069068105	78.6174862940891	1463.42179	-0.6848739784887768	139.96448280538087	1548.41239	-8.689906592642037	383.2910735437818	1589.93822	-55.09536346320009	273.5822964731875	1680.74567	-30.931442438210308	208.416645158351	1626.13194	-19.38099410959356	297.32215659291467	1511.57236	-40.11920187249503	311.60209445103936	1711.60727	-35.519341963650255	473.9551536008568	1883.20426	-81.95130228043192	463.63524457738697	1792.23524	-9.82587817101123	407.6534315779669	1801.44525	-131.89004377359774	392.49894980683547	1818.73421	-49.4783019309759	349.88620412554326	1653.76196	113.66906658525362	290.8120334383734	1659.25565	-194.49595842172977	462.94531476045324	1387.31804	108.13589607566496	433.2292438469371	1374.87645	55.56977859581983	406.2683059579008	1392.97331	-187.04949563829214	391.0671350632647	1387.15647	-127.45699274076765	547.6263736782737	1152.70521	119.07768349126663	591.3287566939291	1170.96365	98.1653985348792	425.9401433870112	1375.03803	94.1699235406825	491.2043891050539	1161.10732	-208.5873166954207	536.9126857828232	1184.05155	-217.05919230779364	375.02326346674596	1381.5012	-154.84055000310516	727.4707577763913	1068.68408	179.4975614575223	636.4259064439004	1074.98567	160.052028634873	590.8248721143306	1121.52045	118.62431495454673	633.2715327669262	1070.1383	-330.88969895555766	560.8309067548479	1078.21725	-272.71203894924685	533.4199579183938	1131.69993	-224.20846705869934	21.09028969661783	1208.12684	155.8537209872333	186.4381908577954	850.22916	110.88009294856656	195.3852057153073	857.17706	34.860626677384026	228.8616839047046	873.8197	76.66094999245433	15.12403545727453	1255.30793	-158.79268950027634	395.7766390101001	1143.01046	-149.66014213762674	398.2271477063803	1136.22414	-73.14685736167452	406.1777584796755	1181.46629	-105.49690718983645	236.79774395473655	814.52018	72.98468948902327	100.53629616971378	459.85408	112.20227008202284	101.09326291814784	458.07671	51.71185194592761	426.9469684255555	1096.79885	-117.17732503528019	210.45846937988867	785.59752	-163.83978065032483	216.25543885393182	778.32646	-104.13464139570527	30.69601587757316	405.88667	80.80883456422498	165.7411125407691	337.53871	34.242822061427816	168.59143554460735	332.04502	108.7713991215508	185.87668470073538	325.09712	69.06733718976507	64.90142862237113	391.18297	78.50439319755658	255.94501248309032	287.4492	63.73997386678191	138.60289006119896	735.66958	-131.7479560206673	270.11458615352785	649.54793	-112.51678880923355	264.2011075358369	655.36478	-186.66268373190755	284.8915358251495	640.82266	-150.73981895472124	171.05551017162708	717.89589	-135.734092750176	350.8752380323498	597.03473	-159.49459009131405	
239	3.967	0.0	1249.97582	7.653894434872941E-14	113.70931063349053	1311.69903	119.88091135717887	70.09118884085817	1331.08852	-140.09021699571187	90.13048463420493	1388.93384	106.00187692412796	54.30131354422407	1404.93016	-108.2012136614315	-59.56634024247906	1210.38894	62.441735551278754	-77.4289911462607	1218.30632	-44.721695258122494	-54.34718338834816	1289.88585	11.980236889705314	10.940753058277553	1370.83698	7.071117811972278	78.86504121632743	1463.26022	-0.47715073454247936	140.31589168914792	1548.25082	-8.60596723769101	383.6026584097013	1589.13032	-55.46669584655761	274.36907534443765	1680.26093	-31.114967416767495	209.09956240762796	1625.80878	-19.440741627031628	297.54979567600697	1511.08763	-40.139117711641056	312.36895105526736	1711.12254	-35.930498364855346	475.2214024758045	1881.91163	-83.20898507032521	464.6937766362645	1791.26576	-10.836013699110541	408.38045650390285	1800.31419	-132.75647834098746	393.68125289895613	1817.92631	-50.384568176657666	351.0044837018588	1653.27722	113.34184830643126	291.0197566823197	1658.60933	-194.74351334396812	463.7719253099953	1386.99489	108.40764926329237	433.95199277450604	1374.39172	55.96530924456644	406.86727099647453	1392.48858	-186.75781895107426	391.76996815168764	1386.83331	-127.28910117511333	548.5568317614684	1152.22047	119.22566045034323	592.2592212049999	1170.64049	98.31336783351132	426.76674627610885	1374.5533	94.4416703004338	492.1149454374232	1160.94574	-208.6669800520048	537.8232421151926	1183.88997	-217.13885566437767	375.72609655516885	1381.01646	-154.6726584374509	728.3613918417384	1068.19935	179.19026667829033	637.3364551158253	1074.50093	159.97235885041286	591.6315668247267	1121.19729	118.66842905908187	633.9146119100351	1070.1383	-331.40471697873596	561.6176856260979	1078.21725	-272.895563927804	534.3305065903187	1131.53835	-224.28813684315955	21.77320694589477	1207.96526	155.79397346979525	191.38219899338029	852.00653	111.02099491935033	199.9777973066807	859.11601	34.91758286534063	233.33049160708273	876.24339	76.6140522188822	15.247812918393691	1255.63109	-158.68882787830321	395.6286632835918	1143.17204	-148.72966996611143	397.85153289677976	1136.38572	-72.19646935101322	405.92591347074966	1181.46629	-104.44266398507814	239.23772983675033	814.3586	73.34467211828924	84.53333894112676	467.77146	115.43739227027389	84.86266660646851	465.50935	54.966889973324655	429.27880902678476	1097.9299	-115.43160615663483	227.09166366816305	777.51857	-163.80402398077686	232.4532772430437	770.89383	-103.83142162521737	12.47642942382155	416.87405	84.92603116064475	144.17098387263442	342.54767	38.079699385165675	147.24893829912057	337.53871	112.58835417826656	163.85128429429213	329.45976	72.94403853135053	45.8751538860995	400.71614	82.57746802899683	232.3062303162993	289.06499	67.52845342717322	157.74010017516827	723.71273	-131.9312723491571	293.6124586890907	645.1853	-111.36126666191612	288.1542658980288	650.51741	-185.54698683500604	309.1961107315529	637.26792	-149.5401762749926	191.14310829625765	707.7164	-135.54179426906524	377.65962283861455	597.35789	-157.47969304401087	
